<svg xmlns="http://www.w3.org/2000/svg" width="20" height="20" fill="none"><g><path d="M 0 20 L 0 0 L 20 0 L 20 20 Z" fill="transparent"></path><path d="M 19.98 5.88 C 19.933 4.817 19.761 4.087 19.515 3.454 C 19.261 2.782 18.87 2.18 18.359 1.68 C 17.859 1.172 17.253 0.777 16.589 0.527 C 15.952 0.281 15.225 0.109 14.163 0.063 C 13.092 0.012 12.752 0 10.037 0 C 7.322 0 6.982 0.012 5.915 0.059 C 4.852 0.105 4.122 0.277 3.489 0.523 C 2.817 0.777 2.215 1.168 1.715 1.68 C 1.207 2.18 0.813 2.786 0.563 3.45 C 0.316 4.087 0.145 4.813 0.098 5.876 C 0.047 6.947 0.035 7.286 0.035 10.002 C 0.035 12.717 0.047 13.057 0.094 14.123 C 0.141 15.186 0.313 15.917 0.559 16.55 C 0.813 17.222 1.207 17.823 1.715 18.323 C 2.215 18.831 2.821 19.226 3.485 19.476 C 4.122 19.722 4.848 19.894 5.911 19.941 C 6.978 19.988 7.318 20 10.033 20 C 12.748 20 13.088 19.988 14.155 19.941 C 15.218 19.894 15.948 19.722 16.581 19.476 C 17.925 18.956 18.988 17.894 19.507 16.55 C 19.753 15.913 19.925 15.186 19.972 14.123 C 20.019 13.057 20.031 12.717 20.031 10.002 C 20.031 7.286 20.027 6.947 19.98 5.88 Z M 18.179 14.045 C 18.136 15.022 17.972 15.55 17.835 15.901 C 17.499 16.772 16.808 17.464 15.936 17.8 C 15.585 17.937 15.053 18.101 14.081 18.144 C 13.026 18.191 12.709 18.202 10.041 18.202 C 7.372 18.202 7.052 18.191 6.001 18.144 C 5.024 18.101 4.497 17.937 4.145 17.8 C 3.712 17.64 3.317 17.386 2.997 17.054 C 2.665 16.729 2.411 16.339 2.25 15.905 C 2.114 15.554 1.95 15.022 1.907 14.049 C 1.86 12.995 1.848 12.678 1.848 10.01 C 1.848 7.341 1.86 7.021 1.907 5.97 C 1.95 4.993 2.114 4.466 2.25 4.114 C 2.411 3.68 2.665 3.286 3.001 2.965 C 3.325 2.633 3.715 2.379 4.149 2.219 C 4.501 2.082 5.032 1.918 6.005 1.875 C 7.06 1.828 7.376 1.817 10.045 1.817 C 12.717 1.817 13.033 1.828 14.085 1.875 C 15.061 1.918 15.589 2.082 15.94 2.219 C 16.374 2.379 16.769 2.633 17.089 2.965 C 17.421 3.29 17.675 3.68 17.835 4.114 C 17.972 4.466 18.136 4.997 18.179 5.97 C 18.226 7.025 18.238 7.341 18.238 10.01 C 18.238 12.678 18.226 12.991 18.179 14.045 Z" fill="rgb(29, 31, 19)"></path><path d="M 10.037 4.864 C 7.2 4.864 4.899 7.165 4.899 10.002 C 4.899 12.838 7.2 15.139 10.037 15.139 C 12.873 15.139 15.174 12.838 15.174 10.002 C 15.174 7.165 12.873 4.864 10.037 4.864 Z M 10.037 13.335 C 8.197 13.335 6.704 11.842 6.704 10.002 C 6.704 8.162 8.197 6.669 10.037 6.669 C 11.877 6.669 13.369 8.162 13.369 10.002 C 13.369 11.842 11.877 13.335 10.037 13.335 Z" fill="rgb(29, 31, 19)"></path><path d="M 16.577 4.661 C 16.577 5.323 16.04 5.86 15.378 5.86 C 14.715 5.86 14.178 5.323 14.178 4.661 C 14.178 3.998 14.715 3.461 15.378 3.461 C 16.04 3.461 16.577 3.998 16.577 4.661 Z" fill="rgb(29, 31, 19)"></path></g></svg>