<svg xmlns="http://www.w3.org/2000/svg" width="106" height="24" fill="none"><g transform="translate(0.2 -0.001)"><path d="M 0 0.201 L 105.6 0.201 L 105.6 24.201 L 0 24.201 Z" fill="transparent"></path><path d="M 9 16.801 C 7.343 16.801 6 15.458 6 13.801 L 6 0.001 L 0 0.001 L 0 13.801 C 0 18.772 4.029 22.801 9 22.801 L 15.6 22.801 L 15.6 16.801 Z M 27 6.001 C 24.018 6.001 21.6 8.419 21.6 11.401 C 21.6 14.383 24.018 16.801 27 16.801 C 29.982 16.801 32.4 14.383 32.4 11.401 C 32.4 8.419 29.982 6.001 27 6.001 Z M 15.6 11.401 C 15.6 5.105 20.704 0.001 27 0.001 C 33.296 0.001 38.4 5.105 38.4 11.401 C 38.4 17.697 33.296 22.801 27 22.801 C 20.704 22.801 15.6 17.697 15.6 11.401 Z M 91.8 6.001 C 88.818 6.001 86.4 8.419 86.4 11.401 C 86.4 14.383 88.818 16.801 91.8 16.801 C 94.782 16.801 97.2 14.383 97.2 11.401 C 97.2 8.419 94.782 6.001 91.8 6.001 Z M 80.4 11.401 C 80.4 5.105 85.504 0.001 91.8 0.001 C 98.096 0.001 103.2 5.105 103.2 11.401 C 103.2 17.697 98.096 22.801 91.8 22.801 C 85.504 22.801 80.4 17.697 80.4 11.401 Z M 51 0.001 C 44.704 0.001 39.6 5.105 39.6 11.401 C 39.6 17.697 44.704 22.801 51 22.801 L 67.8 22.801 C 68.981 22.801 70.12 22.621 71.192 22.287 L 74.4 24.001 L 77.86 17.519 C 78.739 15.869 79.2 14.028 79.2 12.158 L 79.2 11.401 C 79.2 5.105 74.096 0.001 67.8 0.001 Z M 73.2 11.401 C 73.2 8.419 70.782 6.001 67.8 6.001 L 51 6.001 C 48.018 6.001 45.6 8.419 45.6 11.401 C 45.6 14.383 48.018 16.801 51 16.801 L 67.8 16.801 C 70.766 16.801 73.177 14.409 73.2 11.443 Z" fill="rgb(153,153,153)"></path><path d="M 105.6 1.501 C 105.6 2.33 104.928 3.002 104.099 3.002 C 103.27 3.002 102.598 2.33 102.598 1.501 C 102.598 0.672 103.27 0 104.099 0 C 104.928 0 105.6 0.672 105.6 1.501 Z" fill="rgb(153,153,153)"></path></g></svg>