<svg xmlns="http://www.w3.org/2000/svg" width="20" height="20" fill="none"><g transform="translate(-0.001 -0.001)"><path d="M 0 19.999 L 0 0 L 20 0 L 20 19.999 Z" fill="transparent"></path><path d="M 18.762 5.016 C 17.621 5.016 16.568 4.638 15.722 4 C 14.752 3.269 14.055 2.196 13.809 0.96 C 13.748 0.655 13.715 0.339 13.712 0.016 L 10.452 0.016 L 10.452 8.926 L 10.448 13.806 C 10.448 15.11 9.598 16.216 8.421 16.605 C 8.079 16.718 7.71 16.772 7.325 16.751 C 6.835 16.724 6.375 16.576 5.975 16.337 C 5.125 15.828 4.548 14.905 4.533 13.85 C 4.508 12.2 5.842 10.856 7.49 10.856 C 7.816 10.856 8.128 10.909 8.421 11.005 L 8.421 8.57 L 8.421 7.695 C 8.112 7.649 7.798 7.625 7.48 7.625 C 5.676 7.625 3.989 8.375 2.782 9.726 C 1.871 10.747 1.324 12.05 1.24 13.416 C 1.129 15.211 1.786 16.916 3.059 18.175 C 3.246 18.36 3.443 18.531 3.648 18.689 C 4.74 19.53 6.075 19.985 7.48 19.985 C 7.798 19.985 8.112 19.962 8.421 19.916 C 9.734 19.721 10.946 19.12 11.902 18.175 C 13.077 17.014 13.726 15.472 13.733 13.831 L 13.716 6.544 C 14.277 6.976 14.89 7.334 15.547 7.611 C 16.571 8.043 17.655 8.262 18.772 8.261 L 18.772 5.894 L 18.772 5.015 C 18.772 5.016 18.763 5.016 18.762 5.016 Z" fill="rgb(29, 31, 19)"></path></g></svg>