<svg xmlns="http://www.w3.org/2000/svg" width="20" height="20" fill="none"><g transform="translate(0 0)"><path d="M 0 20 L 0 0 L 20 0 L 20 20 Z" fill="transparent"></path><path d="M 20 3.799 C 19.256 4.125 18.463 4.342 17.637 4.447 C 18.487 3.939 19.136 3.142 19.441 2.18 C 18.648 2.653 17.773 2.987 16.841 3.173 C 16.088 2.372 15.016 1.875 13.846 1.875 C 11.576 1.875 9.749 3.718 9.749 5.977 C 9.749 6.302 9.776 6.614 9.844 6.912 C 6.435 6.745 3.419 5.112 1.392 2.623 C 1.039 3.237 0.831 3.939 0.831 4.695 C 0.831 6.115 1.562 7.374 2.652 8.103 C 1.994 8.09 1.347 7.899 0.8 7.598 C 0.8 7.61 0.8 7.627 0.8 7.643 C 0.8 9.635 2.221 11.29 4.085 11.671 C 3.751 11.763 3.387 11.806 3.01 11.806 C 2.747 11.806 2.482 11.791 2.234 11.736 C 2.765 13.36 4.272 14.554 6.065 14.593 C 4.67 15.684 2.899 16.341 0.981 16.341 C 0.645 16.341 0.322 16.326 0 16.285 C 1.816 17.456 3.969 18.125 6.29 18.125 C 13.835 18.125 17.96 11.875 17.96 6.458 C 17.96 6.277 17.953 6.102 17.945 5.928 C 18.758 5.35 19.442 4.629 20 3.799 Z" fill="rgb(29, 31, 19)"></path></g></svg>