<svg width="40" height="40" viewBox="0 0 40 40" fill="none" xmlns="http://www.w3.org/2000/svg">
<rect width="40" height="40" rx="8" fill="#36382E"/>
<g clip-path="url(#clip0_142_1252)">
<path d="M24 16H16V24H24V16Z" fill="white"/>
<path d="M29 21C29.6 21 30 20.6 30 20C30 19.5 29.6 19 29 19H28V17H29C29.6 17 30 16.6 30 16C30 15.5 29.6 15 29 15H28V14C28 12.9 27.1 12 26 12H25V11C25 10.5 24.6 10 24 10C23.5 10 23 10.4 23 11V12H21V11C21 10.5 20.6 10 20 10C19.4 10 19 10.4 19 11V12H17V11C17 10.5 16.6 10 16 10C15.4 10 15 10.4 15 11V12H14C12.9 12 12 12.9 12 14V15H11C10.4 15 10 15.4 10 16C10 16.5 10.4 17 11 17H12V19H11C10.4 19 10 19.4 10 20C10 20.5 10.4 21 11 21H12V23H11C10.4 23 10 23.4 10 24C10 24.5 10.4 25 11 25H12V26C12 27.1 12.9 28 14 28H15V29C15 29.5 15.4 30 16 30C16.6 30 17 29.6 17 29V28H19V29C19 29.5 19.4 30 20 30C20.6 30 21 29.6 21 29V28H23V29C23 29.5 23.4 30 24 30C24.5 30 25 29.6 25 29V28H26C27.1 28 28 27.1 28 26V25H29C29.6 25 30 24.6 30 24C30 23.5 29.6 23 29 23H28V21H29ZM26 26H14V14H26V26Z" fill="white"/>
<g clip-path="url(#clip1_142_1252)">
<path d="M24 16H16V24H24V16Z" fill="white"/>
<path d="M29 21C29.6 21 30 20.6 30 20C30 19.5 29.6 19 29 19H28V17H29C29.6 17 30 16.6 30 16C30 15.5 29.6 15 29 15H28V14C28 12.9 27.1 12 26 12H25V11C25 10.5 24.6 10 24 10C23.5 10 23 10.4 23 11V12H21V11C21 10.5 20.6 10 20 10C19.4 10 19 10.4 19 11V12H17V11C17 10.5 16.6 10 16 10C15.4 10 15 10.4 15 11V12H14C12.9 12 12 12.9 12 14V15H11C10.4 15 10 15.4 10 16C10 16.5 10.4 17 11 17H12V19H11C10.4 19 10 19.4 10 20C10 20.5 10.4 21 11 21H12V23H11C10.4 23 10 23.4 10 24C10 24.5 10.4 25 11 25H12V26C12 27.1 12.9 28 14 28H15V29C15 29.5 15.4 30 16 30C16.6 30 17 29.6 17 29V28H19V29C19 29.5 19.4 30 20 30C20.6 30 21 29.6 21 29V28H23V29C23 29.5 23.4 30 24 30C24.5 30 25 29.6 25 29V28H26C27.1 28 28 27.1 28 26V25H29C29.6 25 30 24.6 30 24C30 23.5 29.6 23 29 23H28V21H29ZM26 26H14V14H26V26Z" fill="white"/>
</g>
</g>
<defs>
<clipPath id="clip0_142_1252">
<rect width="20" height="20" fill="white" transform="translate(10 10)"/>
</clipPath>
<clipPath id="clip1_142_1252">
<rect width="20" height="20" fill="white" transform="translate(10 10)"/>
</clipPath>
</defs>
</svg>
