<svg width="40" height="40" viewBox="0 0 40 40" fill="none" xmlns="http://www.w3.org/2000/svg">
<rect width="40" height="40" rx="8" fill="#36382E"/>
<g clip-path="url(#clip0_142_1261)">
<path d="M27.6191 19.5238H26.1905V15.7143C26.1905 14.6619 25.3381 13.8095 24.2857 13.8095H20.4762V12.3809C20.4762 11.0667 19.4095 10 18.0952 10C16.7809 10 15.7143 11.0667 15.7143 12.3809V13.8095H11.9048C10.8524 13.8095 10.0096 14.6619 10.0096 15.7143L10.0048 19.3333H11.4286C12.8476 19.3333 14 20.4857 14 21.9048C14 23.3238 12.8476 24.4762 11.4286 24.4762H10.0048L10 28.0952C10 29.1476 10.8524 30 11.9048 30H15.5238V28.5714C15.5238 27.1524 16.6762 26 18.0953 26C19.5143 26 20.6667 27.1524 20.6667 28.5714V30H24.2857C25.3381 30 26.1905 29.1476 26.1905 28.0952V24.2857H27.6191C28.9333 24.2857 30 23.2191 30 21.9048C30 20.5905 28.9333 19.5238 27.6191 19.5238Z" fill="white"/>
</g>
<defs>
<clipPath id="clip0_142_1261">
<rect width="20" height="20" fill="white" transform="translate(10 10)"/>
</clipPath>
</defs>
</svg>
