<svg width="40" height="40" viewBox="0 0 40 40" fill="none" xmlns="http://www.w3.org/2000/svg">
<rect width="40" height="40" rx="8" fill="#36382E"/>
<g clip-path="url(#clip0_142_1271)">
<path d="M16.3799 15.4936C16.3897 15.5033 16.3982 15.5136 16.4072 15.5237C18.482 13.8896 21.4263 13.8951 23.4954 15.5402C23.5037 15.5309 23.5116 15.5213 23.5206 15.5123L27.2889 11.744C23.1281 8.06592 16.8411 8.08621 12.6866 11.8002L16.3799 15.4936Z" fill="white"/>
<path d="M28.256 12.7112L24.4877 16.4795C24.4773 16.4899 24.4662 16.4992 24.4553 16.5088C26.0676 18.5755 26.062 21.4944 24.4388 23.5553C24.4489 23.5644 24.4593 23.5729 24.469 23.5826L28.1998 27.3134C31.9138 23.1589 31.9341 16.872 28.256 12.7112Z" fill="white"/>
<path d="M15.4126 23.5826C15.4224 23.5729 15.4327 23.5643 15.4429 23.5553C13.8141 21.4875 13.8141 18.5559 15.4428 16.488C15.4327 16.479 15.4224 16.4704 15.4126 16.4607L11.7244 12.7725C8.09209 16.9207 8.09114 23.1365 11.7264 27.2688L15.4126 23.5826Z" fill="white"/>
<path d="M23.5017 24.5497C23.492 24.54 23.4834 24.5297 23.4745 24.5195C21.4066 26.1482 18.475 26.1482 16.4071 24.5195C16.3981 24.5297 16.3896 24.54 16.3798 24.5497L12.6912 28.2383C16.8233 31.9088 23.0659 31.9195 27.2274 28.2754L23.5017 24.5497Z" fill="white"/>
</g>
<defs>
<clipPath id="clip0_142_1271">
<rect width="22" height="22" fill="white" transform="translate(9 9)"/>
</clipPath>
</defs>
</svg>
