<svg xmlns="http://www.w3.org/2000/svg" width="24" height="24" fill="none"><g transform="translate(-0.001 -0.001)"><path d="M 0 24 L 0 0 L 24 0 L 24 24 Z" fill="transparent"></path><path d="M 19.016 3.509 L 4.984 3.509 C 2.232 3.509 0 5.741 0 8.494 L 0 15.508 C 0 18.26 2.232 20.492 4.984 20.492 L 19.016 20.492 C 21.768 20.492 24 18.26 24 15.508 L 24 8.494 C 24 5.741 21.768 3.509 19.016 3.509 Z M 15.645 12.342 L 9.082 15.472 C 8.907 15.555 8.705 15.428 8.705 15.234 L 8.705 8.778 C 8.705 8.582 8.912 8.454 9.087 8.543 L 15.65 11.869 C 15.845 11.968 15.842 12.248 15.645 12.342 Z" fill="rgb(29, 31, 19)"></path></g></svg>